<?xml version="1.0" standalone="no"?>
<!DOCTYPE svg PUBLIC "-//W3C//DTD SVG 20010904//EN"
 "http://www.w3.org/TR/2001/REC-SVG-20010904/DTD/svg10.dtd">
<svg version="1.0" xmlns="http://www.w3.org/2000/svg"
 width="1080.000000pt" height="150.000000pt" viewBox="0 0 1080.000000 150.000000"
 preserveAspectRatio="xMidYMid meet">

<g transform="translate(0.000000,150.000000) scale(0.100000,-0.100000)"
fill="#000000" stroke="none">
<path d="M2201 1350 c-1 -25 -3 -26 -111 -37 -125 -14 -204 -41 -198 -70 2
-10 13 -19 25 -21 21 -3 257 67 301 90 17 9 25 9 34 0 8 -8 4 -14 -16 -22 -20
-7 -26 -15 -22 -26 3 -9 6 -20 6 -25 0 -5 10 -9 23 -9 37 0 140 -55 179 -96
39 -41 82 -126 104 -209 18 -65 18 -61 -13 -73 -28 -11 -73 -16 -228 -27 -96
-7 -151 -13 -187 -21 -65 -13 -80 12 -80 136 l0 75 -13 -40 c-7 -22 -16 -58
-21 -79 -11 -46 -29 -57 -38 -22 -7 30 -43 25 -48 -7 -2 -12 -11 -23 -20 -25
-13 -3 -18 3 -18 22 0 14 -4 26 -10 26 -5 0 -10 -25 -10 -55 l0 -55 -35 0
c-29 0 -37 -5 -46 -27 -29 -77 -68 -310 -84 -498 -3 -38 -11 -82 -16 -97 -14
-34 1 -62 43 -84 34 -18 53 -17 362 22 148 19 162 25 103 48 -24 9 -77 39
-116 66 -39 27 -87 52 -105 55 -58 11 -94 40 -106 86 -22 79 -1 111 75 115 84
4 105 22 105 89 0 29 4 57 10 60 5 3 84 -4 176 -15 139 -17 177 -19 225 -9 33
6 59 14 59 18 0 3 20 6 44 6 25 0 43 -2 42 -5 -36 -74 -37 -79 -26 -143 14
-79 19 -87 59 -92 18 -2 41 -7 51 -10 18 -6 37 15 38 40 1 27 26 96 38 106 8
6 14 18 14 27 0 27 -43 102 -59 103 -9 0 9 6 39 12 54 12 55 13 52 45 -4 37 9
41 54 17 34 -17 80 -20 89 -4 15 23 -10 65 -89 147 -57 60 -88 102 -100 135
-51 136 -163 204 -399 242 -44 7 -79 37 -71 60 5 12 29 15 133 15 135 0 163 7
145 37 -17 27 -84 28 -182 2 -67 -17 -89 -19 -103 -10 -10 6 -25 11 -33 11 -8
0 -17 6 -19 13 -3 6 -6 1 -6 -13z m221 -700 c29 0 75 7 102 15 65 20 81 18 30
-3 -23 -9 -48 -22 -55 -28 -8 -7 -33 -15 -56 -19 -24 -4 -43 -11 -43 -16 0 -5
-8 -5 -17 1 -10 6 -82 21 -161 34 -79 14 -146 27 -149 30 -3 3 32 3 78 -1 46
-3 100 -1 119 4 25 7 44 6 67 -4 18 -7 56 -13 85 -13z m213 -70 c3 -5 1 -10
-4 -10 -6 0 -11 5 -11 10 0 6 2 10 4 10 3 0 8 -4 11 -10z m6 -63 c-10 -9 -11
-8 -5 6 3 10 9 15 12 12 3 -3 0 -11 -7 -18z m-26 -77 c7 0 23 -9 36 -20 21
-17 22 -19 6 -20 -52 -1 -88 41 -86 100 0 20 4 16 16 -17 8 -24 21 -43 28 -43z"/>
<path d="M2171 554 c-36 -7 -67 -17 -71 -21 -4 -5 -23 -32 -44 -61 -32 -46
-34 -53 -17 -50 11 2 27 -6 36 -17 15 -19 16 -19 10 13 -4 17 -3 32 2 32 5 0
15 -15 21 -32 7 -18 27 -49 45 -69 32 -35 33 -36 94 -29 34 3 65 8 68 11 3 4
8 35 11 70 6 60 4 67 -25 106 -42 58 -55 63 -130 47z m19 -39 c0 -8 -6 -15
-14 -15 -20 0 -29 17 -14 23 22 9 28 7 28 -8z m40 -44 c0 -6 -4 -13 -10 -16
-5 -3 -10 1 -10 9 0 9 5 16 10 16 6 0 10 -4 10 -9z m-21 -96 c33 -7 41 -22 16
-31 -23 -9 -82 33 -94 68 -20 56 -12 63 18 16 21 -33 38 -48 60 -53z m91 59
c0 -14 -4 -22 -10 -19 -5 3 -10 17 -10 31 0 14 4 22 10 19 6 -3 10 -17 10 -31z"/>
<path d="M2776 420 c-3 -8 -12 -37 -21 -63 -24 -77 -40 -100 -104 -159 -42
-39 -77 -62 -118 -76 l-58 -20 30 -12 c25 -10 41 -8 100 9 39 11 94 23 124 26
61 7 106 26 115 50 16 42 5 112 -29 185 -19 43 -36 68 -39 60z"/>
<path d="M2433 233 c-29 -3 -43 -9 -43 -19 0 -11 15 -14 65 -14 54 0 66 3 75
20 12 22 8 22 -97 13z"/>
</g>
</svg>
